{"title":"High School of the Dead","uid":11586109,"size":829857566,"categoryP":"video","categoryS":"tv_shows","magnet":"?xt=urn:btih:9cd55aed0332c8598faa37a2049bfa05696ea0c4&amp;dn=High+School+of+the+Dead&amp;tr=udp%3A%2F%2Ftracker.openbittorrent.com%3A80&amp;tr=udp%3A%2F%2Fopen.demonii.com%3A1337&amp;tr=udp%3A%2F%2Ftracker.coppersurfer.tk%3A6969&amp;tr=udp%3A%2F%2Fexodus.desync.com%3A6969","seeders":0,"leechers":1,"uploader":"p7trick","files":-1,"time":1417174225,"description":"animewaffles\n\nHigh School of the Dead ep 1-12 ENGLISH DUBBED\nHigh School of the Dead OVA (.flv)\n_________________________________________________________\n\nFormat                                   : MPEG-4\nFormat profile                           : Base Media\nCodec ID                                 : isom\nFile size                                : 60.2 MiB\nDuration                                 : 23mn 40s\nOverall bit rate mode                    : Variable\nOverall bit rate                         : 355 Kbps\n\nVideo\nID                                       : 1\nFormat                                   : AVC\nFormat/Info                              : Advanced Video Codec\nFormat profile                           : &lt;a class=&quot;__cf_email__&quot; href=&quot;/cdn-cgi/l/email-protection&quot; data-cfemail=&quot;4e062729260e027d607e&quot;&gt;[email&amp;#160;protected]&lt;/a&gt;&lt;script cf-hash='f9e31' type=&quot;text/javascript&quot;&gt;\n/* &lt;![CDATA[ */!function(){try{var t=&quot;currentScript&quot;in document?document.currentScript:function(){for(var t=document.getElementsByTagName(&quot;script&quot;),e=t.length;e--;)if(t[e].getAttribute(&quot;cf-hash&quot;))return t[e]}();if(t&amp;&amp;t.previousSibling){var e,r,n,i,c=t.previousSibling,a=c.getAttribute(&quot;data-cfemail&quot;);if(a){for(e=&quot;&quot;,r=parseInt(a.substr(0,2),16),n=2;a.length-n;n+=2)i=parseInt(a.substr(n,2),16)^r,e+=String.fromCharCode(i);e=document.createTextNode(e),c.parentNode.replaceChild(e,c)}}}catch(u){}}();/* ]]&gt; */&lt;/script&gt;\nFormat settings, CABAC                   : Yes\nFormat settings, ReFrames                : 12 frames\nCodec ID                                 : avc1\nCodec ID/Info                            : Advanced Video Coding\nDuration                                 : 23mn 40s\nBit rate                                 : 300 Kbps\nMaximum bit rate                         : 2 370 Kbps\nWidth                                    : 800 pixels\nHeight                                   : 448 pixels\nDisplay aspect ratio                     : 16:9\nFrame rate mode                          : Constant\nFrame rate                               : 23.976 fps\nColor space                              : YUV\nChroma subsampling                       : 4:2:0\nBit depth                                : 8 bits\nScan type                                : Progressive\nBits/(Pixel*Frame)                       : 0.035\nStream size                              : 50.8 MiB (84%)\n\n\nAudio\nID                                       : 2\nFormat                                   : AAC\nFormat/Info                              : Advanced Audio Codec\nFormat profile                           : HE-AACv2 / HE-AAC / LC\nCodec ID                                 : 40\nDuration                                 : 23mn 40s\nBit rate mode                            : Variable\nBit rate                                 : 52.0 Kbps\nMaximum bit rate                         : 58.1 Kbps\nChannel(s)                               : 2 channels / 1 channel / 1 channel\nChannel positions                        : Front: L R / Front: C / Front: C\nSampling rate                            : 48.0 KHz / 48.0 KHz / 24.0 KHz\nCompression mode                         : Lossy\nStream size                              : 8.80 MiB (15%)\nLanguage                                 : English\n_________________________________________________________\n\nSummary:\nThe world is ravaged by a deadly disease that turns humans into zombies. In Japan, several students of Fujimi High School, and the school nurse, band together to survive this apocalypse. Komuro Takashi is one of the students who survived the initial outbreak.\n\nFor updates/requests:\nTwitter - @p7tricktorrent\nFacebook - /p7tricktorrent\nTPB - /user/p7trick/\nKAT - /user/iPirate7\n_________________________________________________________\n\nSEED!\n\nshare ratio:\n&quot;Scumbag = 0.1:1\nLeecher = 0.999:1\nMinimum = 1:1\nGood = 3:1\nGreat = 5:1\nAwesome = 10:1\n1337 = 100:1&quot;","torrent":{"xt":"urn:btih:9cd55aed0332c8598faa37a2049bfa05696ea0c4","amp;dn":"High+School+of+the+Dead","amp;tr":["udp%3A%2F%2Ftracker.openbittorrent.com%3A80","udp%3A%2F%2Fopen.demonii.com%3A1337","udp%3A%2F%2Ftracker.coppersurfer.tk%3A6969","udp%3A%2F%2Fexodus.desync.com%3A6969"],"infoHash":"9cd55aed0332c8598faa37a2049bfa05696ea0c4","infoHashBuffer":{"type":"Buffer","data":[156,213,90,237,3,50,200,89,143,170,55,162,4,155,250,5,105,110,160,196]},"announce":[],"urlList":[]}}